<!DOCTYPE svg PUBLIC "-//W3C//DTD SVG 1.1//EN" "http://www.w3.org/Graphics/SVG/1.1/DTD/svg11.dtd">
<!-- Uploaded to: SVG Repo, www.svgrepo.com, Transformed by: SVG Repo Mixer Tools -->
<svg width="256px" height="256px" viewBox="-8.4 -8.4 36.80 36.80" xmlns="http://www.w3.org/2000/svg" fill="#000000" stroke="#000000">
<g id="SVGRepo_bgCarrier" stroke-width="0"/>
<g id="SVGRepo_tracerCarrier" stroke-linecap="round" stroke-linejoin="round" stroke="#CCCCCC" stroke-width="1.64"> <g id="Lager_13" data-name="Lager 13" transform="translate(-10 -6)"> <path id="Path_15" data-name="Path 15" d="M15.909,16.681a1.97,1.97,0,0,1-.278-.732,1,1,0,0,1,.278-.679l5.517-5.732a2.116,2.116,0,0,0,.01-2.887l-.028-.03a1.958,1.958,0,0,0-2.854-.008l-8.267,8.613a1.077,1.077,0,0,0-.287.723,2.115,2.115,0,0,0,.287.775l8.267,8.665a1.959,1.959,0,0,0,2.854-.012l.028-.036a2.134,2.134,0,0,0-.01-2.9Z" fill="#f9d342"/> </g> </g>
<g id="SVGRepo_iconCarrier"> <g id="Lager_13" data-name="Lager 13" transform="translate(-10 -6)"> <path id="Path_15" data-name="Path 15" d="M15.909,16.681a1.97,1.97,0,0,1-.278-.732,1,1,0,0,1,.278-.679l5.517-5.732a2.116,2.116,0,0,0,.01-2.887l-.028-.03a1.958,1.958,0,0,0-2.854-.008l-8.267,8.613a1.077,1.077,0,0,0-.287.723,2.115,2.115,0,0,0,.287.775l8.267,8.665a1.959,1.959,0,0,0,2.854-.012l.028-.036a2.134,2.134,0,0,0-.01-2.9Z" fill="#f9d342"/> </g> </g>
</svg>