<!DOCTYPE svg PUBLIC "-//W3C//DTD SVG 1.1//EN" "http://www.w3.org/Graphics/SVG/1.1/DTD/svg11.dtd">
<!-- Uploaded to: SVG Repo, www.svgrepo.com, Transformed by: SVG Repo Mixer Tools -->
<svg version="1.1" id="Icons" xmlns="http://www.w3.org/2000/svg" xmlns:xlink="http://www.w3.org/1999/xlink" viewBox="0 0 32.00 32.00" xml:space="preserve" width="800px" height="800px" fill="#ffffff" stroke="#ffffff">
<g id="SVGRepo_bgCarrier" stroke-width="0"/>
<g id="SVGRepo_tracerCarrier" stroke-linecap="round" stroke-linejoin="round"/>
<g id="SVGRepo_iconCarrier"> <style type="text/css"> .st0{fill:none;stroke:#e60000;stroke-width:0.512;stroke-linecap:round;stroke-linejoin:round;stroke-miterlimit:10;} .st1{fill:none;stroke:#e60000;stroke-width:0.512;stroke-linejoin:round;stroke-miterlimit:10;} .st2{fill:none;stroke:#e60000;stroke-width:0.512;stroke-linecap:round;stroke-miterlimit:10;} </style> <path class="st1" d="M13.6,21.2l7.7-7.7c1.8,0.7,3.9,0.3,5.4-1.1s1.8-3.6,1.1-5.4l-2.4,2.4l-2.2-0.6l-0.6-2.2l2.4-2.4 c-1.8-0.7-3.9-0.3-5.4,1.1s-1.8,3.6-1.1,5.4l-7.7,7.7c-1.8-0.7-3.9-0.3-5.4,1.1s-1.8,3.6-1.1,5.4l2.4-2.4l2.2,0.6l0.6,2.2l-2.4,2.4 c1.8,0.7,3.9,0.3,5.4-1.1S14.3,23,13.6,21.2z"/> </g>
</svg>